<svg width="25" height="24" viewBox="0 0 25 24" fill="none" xmlns="http://www.w3.org/2000/svg">
<path d="M21 6H4M19.333 8.5L18.873 15.4C18.696 18.054 18.608 19.381 17.743 20.19C16.878 20.999 15.547 21 12.887 21H12.113C9.453 21 8.122 21 7.257 20.19C6.392 19.381 6.303 18.054 6.127 15.4L5.667 8.5" stroke="#0E0E0E" stroke-width="1.5" stroke-linecap="round"/>
<path d="M7 6H7.11C7.51245 5.98972 7.90242 5.85822 8.22892 5.62271C8.55543 5.3872 8.80325 5.05864 8.94 4.68L8.974 4.577L9.071 4.286C9.154 4.037 9.196 3.913 9.251 3.807C9.35921 3.59939 9.51451 3.41999 9.70448 3.28316C9.89444 3.14633 10.1138 3.05586 10.345 3.019C10.462 3 10.593 3 10.855 3H14.145C14.407 3 14.538 3 14.655 3.019C14.8862 3.05586 15.1056 3.14633 15.2955 3.28316C15.4855 3.41999 15.6408 3.59939 15.749 3.807C15.804 3.913 15.846 4.037 15.929 4.286L16.026 4.577C16.1527 4.99827 16.4148 5.36601 16.7717 5.62326C17.1285 5.88051 17.5603 6.01293 18 6" stroke="#0E0E0E" stroke-width="1.5"/>
</svg>
