<svg width="20" height="20" viewBox="0 0 20 20" fill="none" xmlns="http://www.w3.org/2000/svg">
<path d="M14.2092 3.54949L16.4508 5.79104M15.6503 1.57476L9.58636 7.63871C9.27304 7.95159 9.05935 8.35023 8.97223 8.78437L8.41211 11.5882L11.2159 11.027C11.65 10.9402 12.0481 10.7273 12.3616 10.4139L18.4255 4.34997C18.6077 4.16775 18.7523 3.95142 18.8509 3.71333C18.9495 3.47525 19.0003 3.22007 19.0003 2.96237C19.0003 2.70466 18.9495 2.44949 18.8509 2.2114C18.7523 1.97332 18.6077 1.75699 18.4255 1.57476C18.2433 1.39254 18.027 1.24799 17.7889 1.14938C17.5508 1.05076 17.2956 1 17.0379 1C16.7802 1 16.525 1.05076 16.2869 1.14938C16.0489 1.24799 15.8325 1.39254 15.6503 1.57476Z" stroke="#FFF8E9" stroke-width="2" stroke-linecap="round" stroke-linejoin="round"/>
<path d="M16.8825 13.706V16.8825C16.8825 17.4442 16.6594 17.9828 16.2623 18.3799C15.8651 18.7771 15.3265 19.0002 14.7648 19.0002H3.11767C2.55603 19.0002 2.01739 18.7771 1.62025 18.3799C1.22311 17.9828 1 17.4442 1 16.8825V5.23534C1 4.6737 1.22311 4.13507 1.62025 3.73793C2.01739 3.34079 2.55603 3.11768 3.11767 3.11768H6.29417" stroke="#FFF8E9" stroke-width="2" stroke-linecap="round" stroke-linejoin="round"/>
</svg>
