<svg width="34" height="34" viewBox="0 0 34 34" fill="none" xmlns="http://www.w3.org/2000/svg">
<path d="M8.50016 9.91602H15.5835C15.9592 9.91602 16.3196 10.0653 16.5852 10.3309C16.8509 10.5966 17.0002 10.957 17.0002 11.3327C17.0002 11.7084 16.8509 12.0687 16.5852 12.3344C16.3196 12.6001 15.9592 12.7493 15.5835 12.7493H8.50016C8.12444 12.7493 7.7641 12.6001 7.49843 12.3344C7.23275 12.0687 7.0835 11.7084 7.0835 11.3327C7.0835 10.957 7.23275 10.5966 7.49843 10.3309C7.7641 10.0653 8.12444 9.91602 8.50016 9.91602ZM18.4168 21.2494H25.5002C25.8759 21.2494 26.2362 21.3986 26.5019 21.6643C26.7676 21.93 26.9168 22.2903 26.9168 22.666C26.9168 23.0417 26.7676 23.4021 26.5019 23.6678C26.2362 23.9334 25.8759 24.0827 25.5002 24.0827H18.4168C18.0411 24.0827 17.6808 23.9334 17.4151 23.6678C17.1494 23.4021 17.0002 23.0417 17.0002 22.666C17.0002 22.2903 17.1494 21.93 17.4151 21.6643C17.6808 21.3986 18.0411 21.2494 18.4168 21.2494ZM8.50016 15.5827H25.5002C25.8759 15.5827 26.2362 15.7319 26.5019 15.9976C26.7676 16.2633 26.9168 16.6236 26.9168 16.9994C26.9168 17.3751 26.7676 17.7354 26.5019 18.0011C26.2362 18.2668 25.8759 18.416 25.5002 18.416H8.50016C8.12444 18.416 7.7641 18.2668 7.49843 18.0011C7.23275 17.7354 7.0835 17.3751 7.0835 16.9994C7.0835 16.6236 7.23275 16.2633 7.49843 15.9976C7.7641 15.7319 8.12444 15.5827 8.50016 15.5827Z" fill="#141413"/>
</svg>
