<svg width="200" height="296" viewBox="0 0 200 296" fill="none" xmlns="http://www.w3.org/2000/svg">
<g clip-path="url(#clip0_1843_2139)">
<path d="M143.477 124.665C143.477 124.665 144.448 137.814 144.448 138.301C144.448 138.788 137.65 172.391 137.65 172.391C137.65 172.391 127.94 190.897 137.65 190.41C147.361 189.923 144.448 172.878 144.448 172.878L154.644 144.632L150.274 124.665L143.477 124.665Z" fill="#FFB8B8"/>
<path d="M191.545 271.739L193.002 282.453L182.805 283.427L184.262 270.278L191.545 271.739Z" fill="#FFB8B8"/>
<path d="M159.5 271.739L158.043 282.453L168.239 283.427L166.783 270.278L159.5 271.739Z" fill="#FFB8B8"/>
<path d="M148.332 171.417L145.904 174.826C145.904 174.826 144.448 189.436 145.904 194.306C147.361 199.176 150.274 221.578 150.274 223.039C150.274 224.5 150.76 225.474 150.274 225.961C149.789 226.448 150.274 231.318 150.274 231.318V233.753L156.586 269.791C156.586 269.791 152.702 274.174 155.615 274.174C158.528 274.174 169.21 274.174 168.725 269.304L167.754 268.817C167.754 268.817 166.297 236.675 166.783 235.214C167.268 233.753 167.754 224.5 167.754 224.5L172.124 194.793L180.378 223.526L182.32 266.382C182.32 266.382 180.378 271.252 182.32 272.226C184.262 273.2 192.516 276.609 193.002 271.739C193.487 266.869 195.915 224.5 195.915 222.552C195.915 220.604 194.944 190.41 194.944 190.41C194.944 190.41 195.43 185.54 195.915 184.566C196.401 183.592 195.429 182.618 195.915 181.157C196.401 179.696 194.944 174.826 194.944 174.826L173.095 168.982L148.332 171.417Z" fill="#2F2E41"/>
<path d="M165.326 280.505C165.326 280.505 167.754 278.07 164.355 278.07C162.173 278.115 160.024 278.612 158.043 279.531L155.615 288.297C155.615 288.297 145.662 296.333 156.829 295.359C167.996 294.385 169.696 294.141 170.181 293.167C170.522 292.484 169.906 285.323 169.509 281.114C169.491 280.911 169.419 280.717 169.3 280.552C169.182 280.387 169.021 280.257 168.835 280.176C168.649 280.095 168.445 280.065 168.244 280.091C168.042 280.117 167.852 280.196 167.692 280.321C167.376 280.615 166.97 280.793 166.541 280.827C166.111 280.86 165.683 280.747 165.326 280.505Z" fill="#2F2E41"/>
<path d="M186.204 280.505C186.204 280.505 183.777 278.07 187.175 278.07C189.357 278.115 191.506 278.612 193.487 279.531L195.915 288.297C195.915 288.297 205.869 296.333 194.701 295.359C183.534 294.385 180.378 294.141 179.892 293.167C179.554 292.489 180.865 285.43 181.692 281.209C181.737 280.976 181.841 280.759 181.994 280.577C182.147 280.396 182.343 280.257 182.565 280.173C182.787 280.089 183.026 280.063 183.26 280.098C183.494 280.133 183.716 280.228 183.903 280.373C184.219 280.646 184.615 280.806 185.031 280.83C185.447 280.854 185.859 280.74 186.204 280.505Z" fill="#2F2E41"/>
<path d="M150.274 82.7824C150.274 82.7824 152.217 92.5224 152.217 93.9834C152.217 95.4444 160.471 99.8274 160.471 99.8274L169.696 88.1394C169.696 88.1394 163.87 79.8604 163.87 77.9124L150.274 82.7824Z" fill="#FFB8B8"/>
<path d="M157.557 95.4444C157.557 95.4444 153.326 94.3146 152.043 92.4445C152.043 92.4445 138.621 105.671 138.621 108.106L149.303 127.1C149.303 127.1 149.303 133.918 150.274 134.405C151.245 134.892 150.274 134.405 150.274 136.353C150.274 138.301 147.361 150.963 148.332 152.911C149.303 154.859 150.274 153.398 149.303 156.32C148.332 159.242 145.904 174.826 145.904 174.826C145.904 174.826 154.644 171.904 167.268 176.774C179.892 181.644 194.944 174.826 194.944 174.826C194.944 174.826 191.06 166.06 192.031 163.138C193.002 160.216 189.603 154.859 189.603 154.859L187.175 110.054C187.175 110.054 190.574 90.0874 188.146 89.1133L183.291 87.1653L167.742 85.2485C167.742 85.2485 163.869 94.9574 157.557 95.4444Z" fill="#3F3D56"/>
<path d="M143.477 104.697L138.621 108.106C138.621 108.106 136.194 115.411 138.621 118.82C141.049 122.229 142.02 127.099 142.02 127.099L151.731 126.125L143.477 104.697Z" fill="#3F3D56"/>
<path d="M145.037 70.603V26.1995C145.037 22.8246 144.374 19.4828 143.086 16.3648C141.799 13.2467 139.912 10.4137 137.532 8.02723C135.153 5.64081 132.328 3.74779 129.22 2.45627C126.111 1.16474 122.779 0.500003 119.415 0.5H25.6224C22.2576 0.499992 18.9258 1.16472 15.8171 2.45624C12.7085 3.74775 9.8839 5.64076 7.50464 8.02717C5.12538 10.4136 3.23805 13.2467 1.9504 16.3647C0.662756 19.4827 6.89916e-06 22.8246 0 26.1995V269.8C-3.21542e-06 276.616 2.69948 283.153 7.50459 287.973C12.3097 292.792 18.8268 295.5 25.6223 295.5H119.414C126.21 295.5 132.727 292.792 137.532 287.973C142.337 283.153 145.037 276.616 145.037 269.8V102.21L145.037 70.603Z" fill="#E6E6E6"/>
<path d="M120.448 7.18605H108.205C108.768 8.57056 108.983 10.0727 108.831 11.5601C108.679 13.0476 108.165 14.4747 107.333 15.7157C106.502 16.9567 105.379 17.9736 104.063 18.6768C102.747 19.3799 101.279 19.7477 99.7887 19.7479H46.0563C44.5655 19.7477 43.0977 19.3799 41.782 18.6768C40.4664 17.9736 39.3433 16.9568 38.5118 15.7157C37.6803 14.4747 37.1658 13.0476 37.0137 11.5601C36.8616 10.0727 37.0765 8.57054 37.6395 7.18604H26.2045C21.1298 7.18603 16.2628 9.20805 12.6744 12.8073C9.08602 16.4065 7.07007 21.2881 7.07007 26.3781V269.622C7.07007 274.712 9.08601 279.593 12.6744 283.193C16.2628 286.792 21.1297 288.814 26.2045 288.814H120.448C122.961 288.814 125.449 288.317 127.771 287.353C130.092 286.388 132.202 284.975 133.979 283.193C135.755 281.41 137.165 279.295 138.126 276.966C139.088 274.638 139.583 272.142 139.583 269.622V26.3781C139.583 23.8578 139.088 21.3621 138.126 19.0336C137.165 16.7051 135.755 14.5894 133.979 12.8073C132.202 11.0251 130.092 9.61144 127.771 8.64695C125.449 7.68246 122.961 7.18605 120.448 7.18605Z" fill="white"/>
<path d="M132.893 115.906H16.3971C15.8251 115.905 15.2768 115.677 14.8724 115.271C14.4679 114.866 14.2404 114.316 14.2397 113.742V84.7571C14.2404 84.1834 14.4679 83.6334 14.8724 83.2278C15.2768 82.8221 15.8251 82.5939 16.3971 82.5933H132.893C133.465 82.5939 134.014 82.8221 134.418 83.2278C134.823 83.6334 135.05 84.1834 135.051 84.7571V113.742C135.05 114.316 134.823 114.866 134.418 115.271C134.014 115.677 133.465 115.905 132.893 115.906ZM16.3971 83.4588C16.0539 83.4592 15.7249 83.5961 15.4822 83.8395C15.2395 84.0829 15.103 84.4129 15.1027 84.7571V113.742C15.103 114.086 15.2395 114.416 15.4822 114.66C15.7249 114.903 16.0539 115.04 16.3971 115.04H132.893C133.237 115.04 133.566 114.903 133.808 114.66C134.051 114.416 134.188 114.086 134.188 113.742V84.7571C134.188 84.4129 134.051 84.0829 133.808 83.8395C133.566 83.5961 133.237 83.4592 132.893 83.4588L16.3971 83.4588Z" fill="#E6E6E6"/>
<path d="M34.4981 106.952C39.3515 106.952 43.2859 103.005 43.2859 98.1373C43.2859 93.2693 39.3515 89.323 34.4981 89.323C29.6447 89.323 25.7102 93.2693 25.7102 98.1373C25.7102 103.005 29.6447 106.952 34.4981 106.952Z" fill="#E6E6E6"/>
<path d="M54.794 92.261C54.406 92.2616 54.0341 92.4167 53.7599 92.6921C53.4858 92.9676 53.3318 93.3409 53.3318 93.73C53.3318 94.1192 53.4858 94.4925 53.7599 94.768C54.0341 95.0434 54.406 95.1985 54.794 95.1991H123.841C124.034 95.1994 124.225 95.1617 124.403 95.088C124.581 95.0143 124.742 94.9061 124.879 94.7697C125.015 94.6332 125.123 94.4712 125.197 94.2928C125.271 94.1144 125.308 93.9232 125.308 93.73C125.308 93.5369 125.271 93.3457 125.197 93.1673C125.123 92.9889 125.015 92.8269 124.879 92.6904C124.742 92.554 124.581 92.4458 124.403 92.3721C124.225 92.2984 124.034 92.2607 123.841 92.261H54.794Z" fill="#E6E6E6"/>
<path d="M54.794 101.075C54.4055 101.075 54.033 101.23 53.7583 101.506C53.4836 101.781 53.3293 102.155 53.3293 102.544C53.3293 102.934 53.4836 103.308 53.7583 103.583C54.033 103.859 54.4055 104.014 54.794 104.014H84.5053C84.8937 104.014 85.2663 103.859 85.541 103.583C85.8156 103.308 85.97 102.934 85.97 102.544C85.97 102.155 85.8156 101.781 85.541 101.506C85.2663 101.23 84.8937 101.075 84.5053 101.075H54.794Z" fill="#E6E6E6"/>
<path d="M132.893 209.945H16.3971C15.8251 209.945 15.2768 209.716 14.8724 209.311C14.4679 208.905 14.2404 208.355 14.2397 207.782V178.797C14.2404 178.223 14.4679 177.673 14.8724 177.267C15.2768 176.862 15.8251 176.633 16.3971 176.633H132.893C133.465 176.633 134.014 176.862 134.418 177.267C134.823 177.673 135.05 178.223 135.051 178.797V207.782C135.05 208.355 134.823 208.905 134.418 209.311C134.014 209.716 133.465 209.945 132.893 209.945ZM16.3971 177.498C16.0539 177.499 15.7249 177.636 15.4822 177.879C15.2395 178.122 15.103 178.452 15.1027 178.797V207.782C15.103 208.126 15.2395 208.456 15.4822 208.699C15.7249 208.943 16.0539 209.079 16.3971 209.08H132.893C133.237 209.079 133.566 208.943 133.808 208.699C134.051 208.456 134.188 208.126 134.188 207.782V178.797C134.188 178.452 134.051 178.122 133.808 177.879C133.566 177.636 133.237 177.499 132.893 177.498L16.3971 177.498Z" fill="#E6E6E6"/>
<path d="M34.4981 200.991C39.3515 200.991 43.2859 197.045 43.2859 192.177C43.2859 187.309 39.3515 183.363 34.4981 183.363C29.6447 183.363 25.7102 187.309 25.7102 192.177C25.7102 197.045 29.6447 200.991 34.4981 200.991Z" fill="#E6E6E6"/>
<path d="M54.794 186.301C54.4055 186.301 54.033 186.456 53.7583 186.731C53.4836 187.007 53.3293 187.38 53.3293 187.77C53.3293 188.159 53.4836 188.533 53.7583 188.809C54.033 189.084 54.4055 189.239 54.794 189.239H123.841C124.034 189.239 124.225 189.201 124.403 189.128C124.581 189.054 124.742 188.946 124.879 188.809C125.015 188.673 125.123 188.511 125.197 188.333C125.271 188.154 125.308 187.963 125.308 187.77C125.308 187.577 125.271 187.385 125.197 187.207C125.123 187.029 125.015 186.867 124.879 186.73C124.742 186.594 124.581 186.486 124.403 186.412C124.225 186.338 124.034 186.3 123.841 186.301H54.794Z" fill="#E6E6E6"/>
<path d="M54.794 195.115C54.406 195.116 54.0341 195.271 53.7599 195.546C53.4858 195.822 53.3318 196.195 53.3318 196.584C53.3318 196.973 53.4858 197.347 53.7599 197.622C54.0341 197.897 54.406 198.052 54.794 198.053H84.5053C84.8938 198.053 85.2663 197.898 85.541 197.623C85.8156 197.347 85.97 196.974 85.97 196.584C85.97 196.194 85.8156 195.821 85.541 195.545C85.2663 195.27 84.8938 195.115 84.5053 195.115H54.794Z" fill="#E6E6E6"/>
<path d="M134.17 134.652V163.71C134.17 164.285 134.06 164.836 133.865 165.243C133.67 165.65 133.406 165.879 133.13 165.88H104.264V133.047H133.826C133.935 133.25 134.021 133.497 134.08 133.774C134.139 134.05 134.17 134.35 134.17 134.652Z" fill="#FFBC31"/>
<path d="M133.529 133.013C133.137 132.649 132.621 132.448 132.087 132.45H15.5894C15.0175 132.451 14.4693 132.679 14.0649 133.085C13.6604 133.491 13.4327 134.041 13.4314 134.614V163.6C13.4327 164.174 13.6604 164.724 14.0649 165.129C14.4693 165.535 15.0175 165.764 15.5894 165.765H132.087C132.658 165.763 133.206 165.535 133.61 165.129C134.013 164.723 134.24 164.174 134.241 163.6V134.614C134.241 134.312 134.178 134.013 134.056 133.738C133.933 133.462 133.754 133.215 133.529 133.013ZM133.38 163.6C133.379 163.944 133.242 164.273 133 164.516C132.758 164.759 132.429 164.896 132.087 164.897H15.5894C15.2465 164.897 14.9178 164.76 14.6753 164.517C14.4329 164.274 14.2965 163.944 14.2962 163.6V134.614C14.296 134.444 14.3294 134.275 14.3943 134.118C14.4592 133.96 14.5545 133.817 14.6746 133.697C14.7947 133.576 14.9373 133.481 15.0943 133.416C15.2513 133.35 15.4195 133.317 15.5894 133.317H132.087C132.43 133.317 132.758 133.454 133.001 133.697C133.243 133.941 133.38 134.27 133.38 134.614L133.38 163.6Z" fill="#E6E6E6"/>
<path d="M52.7164 147.792H24.8883C24.4998 147.792 24.1271 147.947 23.8524 148.222C23.5777 148.498 23.4233 148.872 23.4233 149.261C23.4233 149.651 23.5777 150.025 23.8524 150.3C24.1271 150.576 24.4998 150.731 24.8883 150.731H52.7164C53.1049 150.731 53.4775 150.576 53.7523 150.3C54.027 150.025 54.1814 149.651 54.1814 149.261C54.1814 148.872 54.027 148.498 53.7523 148.222C53.4775 147.947 53.1049 147.792 52.7164 147.792Z" fill="#E6E6E6"/>
<path d="M121.688 153.645H116.662C116.571 153.645 116.484 153.615 116.413 153.559C116.342 153.504 116.291 153.426 116.27 153.338L114.855 147.663C114.84 147.604 114.839 147.541 114.852 147.481C114.865 147.421 114.891 147.364 114.929 147.316C114.966 147.267 115.015 147.228 115.07 147.201C115.125 147.174 115.186 147.16 115.247 147.16H123.103C123.164 147.16 123.225 147.174 123.28 147.201C123.335 147.228 123.383 147.267 123.421 147.316C123.459 147.364 123.485 147.421 123.498 147.481C123.511 147.541 123.51 147.604 123.495 147.663L122.08 153.338C122.058 153.426 122.008 153.504 121.937 153.559C121.866 153.615 121.778 153.645 121.688 153.645Z" fill="white"/>
<path d="M119.175 148.984C119.121 148.984 119.07 149.005 119.032 149.043C118.994 149.081 118.973 149.133 118.973 149.186V152.024C118.973 152.077 118.994 152.129 119.032 152.167C119.07 152.205 119.121 152.226 119.175 152.226C119.229 152.226 119.28 152.205 119.318 152.167C119.356 152.129 119.377 152.077 119.377 152.024V149.186C119.377 149.133 119.356 149.081 119.318 149.043C119.28 149.005 119.229 148.984 119.175 148.984Z" fill="#6C63FF"/>
<path d="M120.62 151.97C120.606 152.021 120.612 152.077 120.639 152.123C120.665 152.17 120.709 152.204 120.76 152.219C120.812 152.233 120.867 152.226 120.914 152.2C120.96 152.174 120.995 152.13 121.009 152.079L121.771 149.346C121.785 149.295 121.779 149.239 121.752 149.193C121.726 149.146 121.682 149.112 121.631 149.098C121.579 149.083 121.524 149.09 121.478 149.116C121.431 149.142 121.397 149.186 121.382 149.237L120.62 151.97Z" fill="#6C63FF"/>
<path d="M116.773 149.089C116.755 149.089 116.737 149.091 116.719 149.096C116.667 149.111 116.623 149.145 116.597 149.192C116.571 149.239 116.564 149.294 116.578 149.346L117.341 152.078C117.355 152.13 117.389 152.174 117.436 152.201C117.483 152.227 117.538 152.234 117.59 152.219C117.641 152.205 117.685 152.17 117.711 152.123C117.738 152.076 117.744 152.021 117.73 151.969L116.968 149.237C116.956 149.194 116.93 149.157 116.895 149.13C116.86 149.103 116.817 149.089 116.773 149.089Z" fill="#6C63FF"/>
<path d="M122.812 146.349H119.983V145.944C119.983 145.729 119.898 145.523 119.746 145.371C119.595 145.218 119.389 145.133 119.175 145.133C118.961 145.133 118.755 145.218 118.603 145.371C118.452 145.523 118.367 145.729 118.367 145.944V146.349H115.538C115.484 146.349 115.433 146.37 115.395 146.408C115.357 146.446 115.336 146.498 115.336 146.552C115.336 146.606 115.357 146.657 115.395 146.695C115.433 146.733 115.484 146.754 115.538 146.754H122.812C122.866 146.754 122.917 146.733 122.955 146.695C122.993 146.657 123.014 146.606 123.014 146.552C123.014 146.498 122.993 146.446 122.955 146.408C122.917 146.37 122.866 146.349 122.812 146.349Z" fill="white"/>
<path d="M154.644 86.1913C161.616 86.1913 167.268 80.5223 167.268 73.5293C167.268 66.5362 161.616 60.8672 154.644 60.8672C147.672 60.8672 142.02 66.5362 142.02 73.5293C142.02 80.5223 147.672 86.1913 154.644 86.1913Z" fill="#FFB8B8"/>
<path d="M145.006 60.1477L142.816 59.2684C142.816 59.2684 147.395 54.2124 153.765 54.6521L151.973 52.6736C151.973 52.6736 156.353 50.915 160.334 55.5313C162.427 57.958 164.849 60.8105 166.359 64.0238H168.704L167.725 66.1854L171.151 68.347L167.634 67.9587C167.968 69.8249 167.854 71.7438 167.302 73.5571L167.396 75.2657C167.396 75.2657 163.32 68.9407 163.32 68.0614V70.2597C163.32 70.2597 161.131 68.2813 161.131 66.9623L159.936 68.5011L159.339 66.083L151.973 68.5011L153.168 66.5227L148.589 67.1822L150.381 64.7641C150.381 64.7641 145.205 67.6218 145.006 70.0399C144.807 72.458 142.219 75.5356 142.219 75.5356L141.024 73.3373C141.024 73.3373 139.233 63.4451 145.006 60.1477Z" fill="#2F2E41"/>
<path d="M179.407 109.08C179.407 109.08 176.595 116.332 177.182 123.507C177.29 124.792 177.721 126.028 178.436 127.099L143.989 143.502C143.989 143.502 128.425 145.118 132.309 151.937C136.194 158.755 150.274 148.528 150.274 148.528C150.274 148.528 187.175 143.17 190.089 137.813C193.002 132.456 194.944 110.054 194.944 110.054L179.407 109.08Z" fill="#FFB8B8"/>
<path d="M180.863 89.1133H188.146C188.146 89.1133 193.487 90.0873 194.944 99.8273C196.401 109.567 197.857 112.002 196.401 112.002C194.944 112.002 177.465 111.515 177.465 111.028C177.465 110.541 180.863 89.1133 180.863 89.1133Z" fill="#3F3D56"/>
</g>
<defs>
<clipPath id="clip0_1843_2139">
<rect width="200" height="295" fill="white" transform="translate(0 0.5)"/>
</clipPath>
</defs>
</svg>
