<svg width="430" height="282" viewBox="0 0 430 282" fill="none" xmlns="http://www.w3.org/2000/svg">
<g clip-path="url(#clip0_1843_2094)">
<path d="M217.945 46.1874L218.186 45.1814L213.758 43.8131L210.219 43.3293L209.85 43.8131C207.716 43.28 205.522 42.8071 203.337 42.284L206.599 29.2055L198.474 27.1934L195.142 40.5235C193.37 40.121 191.641 39.7152 189.957 39.3061L178.752 36.5093L176.587 45.1814C176.587 45.1814 182.487 46.5295 182.487 46.6502C185.779 47.4752 186.373 49.6683 186.272 51.3685L182.477 66.5698C182.765 66.6391 183.048 66.7299 183.323 66.8415L182.467 66.6302L177.151 87.9181C177.036 88.2888 176.849 88.633 176.6 88.931C176.351 89.229 176.045 89.4749 175.701 89.6544C175.357 89.834 174.98 89.9436 174.593 89.9772C174.206 90.0107 173.816 89.9673 173.446 89.8497H173.426C173.507 89.9704 167.517 88.3808 167.517 88.3808L163.49 97.6767L174.061 100.313C176.074 100.805 177.957 101.319 179.85 101.801L176.487 115.292L184.601 117.305L187.934 103.954C190.088 104.538 192.252 105.091 194.407 105.634L195.471 106.407L198.42 106.997L201.37 107.465H202.572C216.424 110.081 226.854 109.025 231.233 96.5097C234.767 86.4492 231.062 80.6142 223.763 76.8214C229.069 75.594 233.076 72.1132 234.143 64.8998L234.234 64.8596C235.703 55.0104 228.193 49.7186 217.945 46.1874ZM215.669 90.8759C213.163 100.936 196.169 95.5036 190.662 94.1455L195.122 76.2681C200.608 77.6464 218.277 80.3627 215.649 90.8759H215.669ZM218.186 64.7188C215.891 73.8939 201.756 69.2258 197.165 68.089L201.192 51.8816C205.773 53.0185 220.552 55.1513 218.126 64.7188H218.186Z" fill="#FFBC31"/>
<path d="M200.596 150.021C185.75 150.021 171.237 145.622 158.893 137.38C146.549 129.137 136.928 117.422 131.247 103.716C125.565 90.0095 124.079 74.9274 126.975 60.3768C129.871 45.8262 137.02 32.4605 147.518 21.9701C158.016 11.4797 171.391 4.33564 185.952 1.44134C200.512 -1.45296 215.605 0.0325033 229.321 5.70988C243.037 11.3873 254.76 21.0015 263.008 33.337C271.256 45.6724 275.659 60.1749 275.659 75.0106C275.636 94.8978 267.721 113.964 253.648 128.026C239.576 142.089 220.497 149.999 200.596 150.021ZM200.596 2.01212C186.148 2.01212 172.025 6.29341 160.012 14.3146C147.999 22.3358 138.636 33.7366 133.107 47.0753C127.578 60.414 126.131 75.0916 128.95 89.2519C131.768 103.412 138.726 116.419 148.942 126.628C159.158 136.837 172.174 143.79 186.345 146.606C200.515 149.423 215.203 147.978 228.551 142.452C241.899 136.927 253.307 127.571 261.334 115.566C269.361 103.562 273.645 89.4484 273.645 75.0106C273.623 55.6569 265.92 37.1022 252.225 23.417C238.531 9.73191 219.963 2.03399 200.596 2.01212ZM201.454 108.234L196.415 106.986L191.321 105.974C189.815 105.595 188.3 105.202 186.797 104.8L183.47 118.13L173.401 115.634L176.766 102.134C176.373 102.032 175.979 101.929 175.584 101.825C174.402 101.516 173.204 101.203 171.956 100.897L160.229 97.9727L165.072 86.7938L165.91 87.0163C167.069 87.3238 168.294 87.6431 169.314 87.903L169.173 87.6907L171.85 88.4934C172.096 88.5744 172.356 88.6057 172.614 88.5856C172.872 88.5655 173.123 88.4943 173.354 88.3763C173.584 88.2582 173.788 88.0956 173.955 87.8979C174.122 87.7002 174.248 87.4713 174.326 87.2246L179.397 66.9097L179.392 66.9082L183.407 50.8272C183.486 48.9399 182.495 47.7639 180.377 47.2339L178.117 46.6675L178.173 46.6316C177.104 46.3727 175.763 46.0584 174.498 45.77L173.497 45.5416L176.154 34.8971L188.336 37.9378C189.703 38.2728 191.104 38.6037 192.539 38.9306L195.876 25.5828L205.954 28.0788L202.695 41.147C203.268 41.2806 203.841 41.4128 204.414 41.5434C205.365 41.762 206.313 41.9792 207.251 42.2051L217.369 44.6986L218.183 45.0979C226.175 47.9612 235.074 53.1596 233.364 64.6157L233.283 65.1624L233.186 65.2051C232.188 71.0056 229.242 74.8672 224.413 76.7162C231.463 81.2198 233.393 87.6976 230.319 96.4504C225.463 110.327 213.122 110.325 201.454 108.234ZM193.763 104.509L199.933 106.036L201.075 106.407C217.012 109.416 224.805 106.11 228.418 95.7853C231.425 87.2261 229.205 81.3598 221.434 77.3214L219.013 76.0633L221.671 75.4488C227.225 74.1643 230.368 70.5375 231.282 64.3602L231.363 63.813L231.445 63.7767C232.347 56.0545 228.141 50.9072 216.413 46.8664L215.823 46.5716L214.929 46.1714L208.718 44.6413L207.741 44.3971C206.498 44.0862 205.234 43.7963 203.963 43.505C203.056 43.2968 202.146 43.088 201.237 42.8704L200.249 42.6336L203.513 29.5476L197.342 28.0194L194.015 41.3308L193.053 41.1122C191.276 40.7079 189.539 40.3046 187.852 39.891L177.62 37.3366L175.948 44.037C177.619 44.3673 179.272 44.7856 180.899 45.2901C183.939 46.0638 185.583 48.156 185.412 51.0356L185.384 51.2198L181.816 65.5088L181.828 65.5137L181.589 66.421L181.542 66.4092L181.523 66.4671L181.579 66.4814L176.263 87.7694C176.113 88.2732 175.865 88.7422 175.532 89.1491C175.199 89.556 174.789 89.8927 174.325 90.1395C173.86 90.3864 173.351 90.5384 172.828 90.5868C172.304 90.6352 171.776 90.5791 171.274 90.4216L171.277 90.4122C170.507 90.3086 169.08 89.9382 166.231 89.1832L163.02 96.5954L172.439 98.944C173.694 99.2515 174.903 99.5673 176.094 99.8792C176.811 100.066 177.521 100.253 178.233 100.434L179.203 100.681L175.842 114.166L182.003 115.694L185.34 102.323L186.332 102.591C188.469 103.17 190.64 103.733 192.784 104.265L193.763 104.509ZM203.786 97.4427C198.914 97.4427 193.572 96.0398 190.135 95.1374C189.54 94.9811 189.008 94.8417 188.555 94.7297L187.576 94.4879L192.524 74.654L193.502 74.9001C194.055 75.0391 194.733 75.1914 195.503 75.3648C201.105 76.6258 210.48 78.7361 213.844 84.1913C214.828 85.7673 215.234 87.6356 214.993 89.4774H215.072L214.781 90.7266C214.543 91.7856 214.09 92.7844 213.449 93.661C212.809 94.5375 211.994 95.2729 211.057 95.8216C209.049 97.0105 206.49 97.4427 203.786 97.4427ZM190.016 93.0261C190.217 93.0786 190.427 93.1337 190.646 93.1912C195.347 94.4266 205.127 96.9928 210.031 94.0906C211.298 93.3595 212.242 92.1764 212.673 90.7787L212.807 90.2398C213.05 89.4064 213.115 88.5314 212.999 87.6713C212.882 86.8112 212.586 85.9851 212.13 85.2465C209.211 80.5129 200.005 78.4409 195.06 77.3278C194.681 77.2423 194.324 77.1618 193.992 77.0856L190.016 93.0261ZM207.447 70.8971C203.446 70.8971 199.17 69.7599 196.405 69.0245C195.897 68.8894 195.443 68.7686 195.058 68.6733L194.08 68.4311L198.593 50.2708L199.57 50.5129C200.023 50.6254 200.577 50.7477 201.206 50.8863C205.802 51.9002 213.494 53.5979 216.409 58.3211C217.333 59.8137 217.709 61.581 217.472 63.3203H217.55L217.298 64.5705C217.075 65.5868 216.644 66.5462 216.034 67.3891C215.423 68.2319 214.645 68.9401 213.749 69.4696C211.812 70.4933 209.637 70.9859 207.447 70.8971ZM196.518 66.9726C196.648 67.007 196.784 67.0428 196.923 67.0802C200.997 68.1628 208.579 70.1798 212.726 67.7365C213.793 67.1191 214.613 66.1535 215.051 65.0023L215.285 64.0792C215.522 63.2981 215.592 62.4757 215.491 61.6657C215.389 60.8557 215.118 60.0761 214.695 59.3777C212.227 55.3785 204.775 53.7344 200.771 52.8512C200.524 52.7966 200.288 52.7445 200.065 52.6944L196.518 66.9726Z" fill="#3F3D56"/>
<path d="M239.231 133.945C239.768 133.191 240.473 132.573 241.29 132.14C242.108 131.707 243.015 131.471 243.94 131.451C244.866 131.431 245.782 131.627 246.618 132.024C247.454 132.421 248.185 133.008 248.754 133.737L268.713 126.958L265.946 137.55L247.417 142.364C246.257 143.149 244.857 143.502 243.463 143.359C242.069 143.216 240.769 142.587 239.793 141.583C238.816 140.578 238.225 139.262 238.122 137.866C238.02 136.469 238.412 135.081 239.231 133.945Z" fill="#FFB8B8"/>
<path d="M396.005 281.153C397.476 265.323 401.538 249.842 408.03 235.327C409.84 231.288 411.831 227.338 414.005 223.476C414.563 222.483 413.035 221.59 412.477 222.584C404.572 236.648 399.034 251.914 396.085 267.773C395.265 272.202 394.648 276.662 394.235 281.153C394.13 282.286 395.901 282.279 396.005 281.153Z" fill="#E6E6E6"/>
<path d="M418.291 226.313C424.482 226.313 429.5 221.298 429.5 215.112C429.5 208.926 424.482 203.911 418.291 203.911C412.101 203.911 407.083 208.926 407.083 215.112C407.083 221.298 412.101 226.313 418.291 226.313Z" fill="#E6E6E6"/>
<path d="M397.151 281.45C398.106 271.181 400.741 261.137 404.953 251.721C406.127 249.101 407.419 246.538 408.829 244.033C408.9 243.902 408.917 243.749 408.876 243.605C408.836 243.462 408.742 243.34 408.613 243.265C408.485 243.19 408.332 243.167 408.187 243.203C408.042 243.238 407.917 243.328 407.837 243.454C402.709 252.578 399.117 262.482 397.203 272.77C396.671 275.643 396.271 278.537 396.003 281.45C395.935 282.185 397.084 282.181 397.151 281.45Z" fill="#E6E6E6"/>
<path d="M411.61 245.873C415.626 245.873 418.881 242.62 418.881 238.607C418.881 234.593 415.626 231.34 411.61 231.34C407.594 231.34 404.338 234.593 404.338 238.607C404.338 242.62 407.594 245.873 411.61 245.873Z" fill="#E6E6E6"/>
<path d="M395.702 280.765C390.134 272.081 386.03 262.542 383.556 252.529C382.868 249.741 382.31 246.926 381.88 244.084C381.855 243.938 381.774 243.806 381.654 243.718C381.534 243.63 381.384 243.592 381.237 243.611C381.089 243.631 380.955 243.707 380.863 243.824C380.77 243.941 380.727 244.089 380.742 244.237C382.314 254.583 385.577 264.6 390.401 273.889C391.75 276.481 393.215 279.008 394.797 281.47C395.196 282.092 396.099 281.382 395.702 280.765Z" fill="#E6E6E6"/>
<path d="M380.732 245.363C384.748 245.363 388.004 242.11 388.004 238.097C388.004 234.083 384.748 230.83 380.732 230.83C376.717 230.83 373.461 234.083 373.461 238.097C373.461 242.11 376.717 245.363 380.732 245.363Z" fill="#E6E6E6"/>
<path d="M337.531 175.985C338.008 175.261 338.321 174.442 338.448 173.585C338.574 172.727 338.511 171.853 338.262 171.022C338.014 170.192 337.586 169.426 337.009 168.779C336.433 168.132 335.721 167.619 334.925 167.276L336.453 146.265L326.895 151.613L326.909 170.746C326.421 172.121 326.456 173.627 327.005 174.979C327.555 176.331 328.582 177.434 329.891 178.08C331.2 178.726 332.701 178.869 334.109 178.483C335.517 178.097 336.735 177.208 337.531 175.985Z" fill="#FFB8B8"/>
<path d="M335.153 94.3098L337.766 161.171L327.148 160.582L324.788 90.4297L327.027 89.3766C327.879 88.9759 328.817 88.7923 329.758 88.8422C330.698 88.8921 331.611 89.174 332.416 89.6625C333.221 90.1511 333.892 90.8312 334.369 91.6421C334.847 92.4531 335.116 93.3695 335.153 94.3098Z" fill="#FFBC31"/>
<path d="M302.313 274.852L295.081 274.852L291.64 246.975L302.315 246.975L302.313 274.852Z" fill="#FFB8B8"/>
<path d="M289.915 272.787H303.863V281.563H281.133C281.133 280.41 281.36 279.269 281.801 278.204C282.242 277.14 282.889 276.172 283.705 275.357C284.52 274.542 285.488 273.896 286.554 273.455C287.619 273.014 288.761 272.787 289.915 272.787Z" fill="#2F2E41"/>
<path d="M362.488 266.215L355.924 269.251L341.082 245.398L350.768 240.917L362.488 266.215Z" fill="#FFB8B8"/>
<path d="M350.368 269.546L363.026 263.69L366.715 271.654L346.088 281.197C345.11 279.085 345.011 276.67 345.814 274.485C346.616 272.3 348.255 270.524 350.368 269.546Z" fill="#2F2E41"/>
<path d="M285.14 183.874L292.599 268.935L302.628 267.756L310.04 190.058L351.002 264.218L361.621 261.271C361.621 261.271 327.443 159.108 324.788 150.56C321.878 141.19 298.831 137.591 298.831 137.591L297.946 136.707C288.044 150.028 284.077 167.313 285.14 183.874Z" fill="#2F2E41"/>
<path d="M324.876 81.997C332.878 81.997 339.365 75.5145 339.365 67.5179C339.365 59.5213 332.878 53.0388 324.876 53.0388C316.874 53.0388 310.387 59.5213 310.387 67.5179C310.387 75.5145 316.874 81.997 324.876 81.997Z" fill="#FFB8B8"/>
<path d="M333.973 95.4556L323.903 147.905C323.903 147.905 308.6 144.851 303.149 141.172C300.99 139.71 299.032 138.201 297.38 136.834C297.055 136.568 296.748 136.303 296.448 136.05C293.722 133.721 292.047 131.988 292.047 131.988C292.047 131.988 292.92 127.714 293.987 122.656C295.179 116.991 296.625 110.335 297.362 107.617C298.984 101.657 304.553 94.7128 308.895 89.9849C310.467 88.2704 312.476 87.0156 314.708 86.3551C316.939 85.6947 319.308 85.6533 321.561 86.2356L329.418 88.2636C330.951 88.6585 332.275 89.6222 333.121 90.9584C333.967 92.2946 334.272 93.9028 333.973 95.4556Z" fill="#FFBC31"/>
<path opacity="0.2" d="M309.621 118.364C309.621 118.364 304.205 129.612 296.448 136.049C293.722 133.721 292.047 131.988 292.047 131.988C292.047 131.988 292.92 127.714 293.987 122.656C300.488 119.225 307.19 117.061 309.621 118.364Z" fill="#0E0E0E"/>
<path d="M319.225 97.7752C318.69 97.5027 318.131 97.2807 317.555 97.1122C316.378 96.7901 315.14 96.7647 313.952 97.0384C312.763 97.3121 311.661 97.8763 310.744 98.6804L278.913 121.98L253.597 130.489L258.171 141.302L295.912 132.091L320.942 109.862C321.804 109.036 322.456 108.018 322.846 106.891C323.236 105.763 323.351 104.559 323.184 103.379C323.016 102.198 322.569 101.074 321.881 100.099C321.193 99.1252 320.282 98.3285 319.225 97.7752Z" fill="#FFBC31"/>
<path d="M325.734 81.8637C327.796 78.7792 329.423 74.5021 327.153 71.5673C324.912 68.6703 320.491 69.0971 317.059 67.8152C312.278 66.0298 309.505 60.4172 310.37 55.3908C311.235 50.3644 315.273 46.1977 320.083 44.4928C324.893 42.7879 330.317 43.3424 335.027 45.3057C340.826 47.7225 345.8 52.3977 347.886 58.3199C349.972 64.2422 348.857 71.353 344.53 75.9049C339.891 80.7851 332.61 82.0857 325.875 82.0068" fill="#2F2E41"/>
<path d="M348.486 64.7916C349.077 68.0876 352.695 69.9596 356.02 70.371C359.346 70.7825 362.785 70.2549 366.023 71.1191C371.73 72.6427 375.494 78.1274 377.566 83.6554C379.637 89.1835 380.556 95.1499 383.248 100.404C385.94 105.659 391.159 110.291 397.046 109.8C395.893 112.701 393.872 115.176 391.259 116.888C388.646 118.599 385.569 119.463 382.446 119.362C379.324 119.26 376.309 118.199 373.812 116.322C371.316 114.445 369.46 111.845 368.497 108.875C366.334 102.203 368.817 94.2473 365.035 88.3399C362.942 85.0711 359.329 83.1482 355.844 81.435C352.36 79.7217 348.703 77.9632 346.367 74.8633C344.031 71.7635 343.564 66.8678 346.443 64.2634" fill="#2F2E41"/>
<path d="M419.044 281.873H230.094C229.907 281.873 229.729 281.799 229.597 281.667C229.465 281.536 229.391 281.357 229.391 281.171C229.391 280.985 229.465 280.806 229.597 280.675C229.729 280.543 229.907 280.469 230.094 280.469H419.044C419.23 280.469 419.409 280.543 419.54 280.675C419.672 280.806 419.746 280.985 419.746 281.171C419.746 281.357 419.672 281.536 419.54 281.667C419.409 281.799 419.23 281.873 419.044 281.873Z" fill="#3F3D56"/>
<path d="M190.152 281.873H1.20242C1.01613 281.873 0.837459 281.799 0.705731 281.667C0.574003 281.536 0.5 281.357 0.5 281.171C0.5 280.985 0.574003 280.806 0.705731 280.675C0.837459 280.543 1.01613 280.469 1.20242 280.469H190.152C190.339 280.469 190.517 280.543 190.649 280.675C190.781 280.806 190.855 280.985 190.855 281.171C190.855 281.357 190.781 281.536 190.649 281.667C190.517 281.799 190.339 281.873 190.152 281.873Z" fill="#3F3D56"/>
<path d="M121.907 274.203L128.822 272.083L123.928 244.423L113.723 247.553L121.907 274.203Z" fill="#A0616A"/>
<path d="M144.126 274.409L122.396 281.073L119.82 272.683L133.154 268.594C135.381 267.911 137.788 268.14 139.845 269.231C141.903 270.321 143.443 272.184 144.126 274.409Z" fill="#2F2E41"/>
<path d="M60.5564 274.362H67.7889L71.2293 246.485L60.5552 246.485L60.5564 274.362Z" fill="#A0616A"/>
<path d="M81.7371 281.072L59.0068 281.073L59.0064 272.297L72.9545 272.296C75.2837 272.296 77.5175 273.221 79.1645 274.867C80.8116 276.512 81.737 278.744 81.7371 281.072Z" fill="#2F2E41"/>
<path d="M62.3972 181.763C61.803 181.242 61.3302 180.598 61.0122 179.875C60.6942 179.152 60.5387 178.368 60.5566 177.579C60.5744 176.789 60.7653 176.013 61.1157 175.306C61.4662 174.598 61.9676 173.976 62.5848 173.483L68.1922 102.921L79.596 105.768L70.4654 174.599C71.2256 175.69 71.559 177.022 71.4024 178.342C71.2457 179.662 70.6099 180.879 69.6154 181.762C68.6209 182.645 67.3368 183.133 66.0064 183.133C64.6761 183.133 63.3919 182.645 62.3972 181.763Z" fill="#A0616A"/>
<path d="M89.3632 76.1427C97.3654 76.1427 103.852 69.6602 103.852 61.6636C103.852 53.6671 97.3654 47.1846 89.3632 47.1846C81.3611 47.1846 74.874 53.6671 74.874 61.6636C74.874 69.6602 81.3611 76.1427 89.3632 76.1427Z" fill="#A0616A"/>
<path d="M69.5732 104.321C66.13 99.5969 66.0239 93.0909 69.733 88.5726C72.1535 85.624 76.2024 83.2644 82.9623 83.2644C100.98 83.2644 107.815 97.5446 107.815 97.5446C107.815 97.5446 115.27 111.204 110.921 123.622C106.572 136.039 106.572 137.281 106.572 137.281L77.9918 134.797C77.9918 134.797 82.8133 122.484 69.5732 104.321Z" fill="#CCCCCC"/>
<path d="M60.7598 116.681L66.9168 96.552C67.3291 95.2041 68.0327 93.9632 68.9778 92.917C69.9228 91.8707 71.0863 91.0446 72.3859 90.4971C73.6856 89.9496 75.0897 89.694 76.4991 89.7484C77.9085 89.8028 79.2887 90.1658 80.5422 90.8119C82.717 91.9375 84.3821 93.8474 85.1999 96.1544C86.0177 98.4614 85.9269 100.993 84.946 103.236L77.1185 121.049L60.7598 116.681Z" fill="#CCCCCC"/>
<path d="M105.951 134.177L130.182 259.594L117.134 263.319L85.4475 180.742L71.1573 265.182L57.4885 267.044C57.4885 267.044 51.4926 155.321 77.9918 134.797L105.951 134.177Z" fill="#2F2E41"/>
<path d="M138.518 121.159C138.308 121.409 138.119 121.675 137.951 121.954L108.728 123.37L103.102 106.204L93.3313 110.844L102.527 136.412L138.667 129.349C139.516 130.276 140.628 130.922 141.853 131.202C143.079 131.482 144.361 131.382 145.529 130.916C146.696 130.45 147.694 129.64 148.39 128.594C149.086 127.547 149.446 126.314 149.424 125.058C149.401 123.801 148.996 122.582 148.263 121.561C147.529 120.541 146.503 119.767 145.319 119.344C144.135 118.921 142.85 118.868 141.635 119.192C140.421 119.516 139.333 120.202 138.518 121.159Z" fill="#A0616A"/>
<path d="M88.9288 99.3478C88.764 97.948 88.9088 96.5291 89.3531 95.1914C89.7974 93.8536 90.5303 92.6298 91.5 91.6063C92.4697 90.5827 93.6526 89.7846 94.9649 89.2681C96.2773 88.7517 97.6872 88.5297 99.0949 88.6177C101.539 88.7744 103.832 89.8542 105.509 91.638C107.186 93.4218 108.121 95.7762 108.125 98.2237V117.679L91.3898 120.252L88.9288 99.3478Z" fill="#CCCCCC"/>
<path d="M92.5496 76.274C90.3749 76.2646 88.6973 73.9766 88.7947 71.8056C88.8922 69.6346 90.3513 67.7244 92.1093 66.4452C93.8673 65.1659 95.929 64.3866 97.8894 63.4461C99.8499 62.5055 101.793 61.3323 103.004 59.5269C103.735 58.3452 104.171 57.0053 104.276 55.6199C104.381 54.2345 104.152 52.8441 103.607 51.5658C102.481 49.0092 100.547 46.892 98.1014 45.5385C94.4627 43.4307 90.169 42.7523 86.0571 43.6355C81.9934 44.5264 75.9372 46.9929 73.5563 50.4022L71.0738 57.1568C68.5443 60.1964 70.5028 64.7105 72.0578 68.3456C73.6127 71.9808 76.9235 74.7158 80.6595 76.016C84.45 77.2333 88.5077 77.3549 92.3643 76.3667" fill="#2F2E41"/>
<path d="M79.3078 53.7781C78.2407 52.0689 76.391 50.9819 74.4788 50.3439C72.2635 49.6049 69.9074 49.3867 67.5939 49.7065C65.2804 50.0263 63.072 50.8753 61.1407 52.1876C59.2093 53.4998 57.6071 55.2398 56.4588 57.272C55.3105 59.3043 54.647 61.574 54.5201 63.9044C54.3175 67.6268 55.4839 71.2669 56.1692 74.9314C56.8546 78.5958 56.991 82.6432 54.9691 85.7761C53.429 88.1623 50.8609 89.6647 48.326 90.9476C46.2133 92.0168 43.9281 93.0202 41.5695 92.8072C39.2109 92.5941 36.8404 90.7273 36.903 88.3616C36.1134 90.0578 35.5803 91.8618 35.321 93.7146C35.1551 95.5751 35.614 97.5825 36.9587 98.8799C38.9132 100.765 42.0099 100.628 44.696 100.221C50.5108 99.3398 56.399 97.6884 60.993 94.0188C65.5869 90.3491 68.6353 84.3066 67.4255 78.5551C66.9201 76.1525 65.7324 73.9592 64.7727 71.6992C63.813 69.4392 63.0637 66.9672 63.5046 64.552C63.7656 63.3077 64.2967 62.1358 65.0604 61.119C65.8241 60.1022 66.8019 59.2654 67.9246 58.6676C70.1953 57.4877 72.7935 57.094 75.3121 57.5481C76.9633 57.8189 79.0251 58.2393 80.0045 56.8835C80.264 56.4539 80.3966 55.9598 80.3868 55.4581C80.377 54.9564 80.2253 54.4678 79.9492 54.0487C79.3842 53.2197 78.6646 52.5073 77.8299 51.9503" fill="#2F2E41"/>
</g>
<defs>
<clipPath id="clip0_1843_2094">
<rect width="429" height="282" fill="white" transform="translate(0.5)"/>
</clipPath>
</defs>
</svg>
