<svg width="266" height="298" viewBox="0 0 266 298" fill="none" xmlns="http://www.w3.org/2000/svg">
<g clip-path="url(#clip0_2081_2696)">
<path d="M127.651 279.56L127.312 272.084C127.277 272.066 127.242 272.047 127.207 272.029C123.574 270.16 119.411 273.544 120.571 277.403C121.663 281.035 122.396 284.949 124.394 288.128C125.575 289.974 127.164 291.536 129.044 292.697C130.924 293.859 133.046 294.591 135.253 294.839L139.868 297.611C140.502 294.148 140.362 290.592 139.459 287.187C138.556 283.783 136.911 280.61 134.638 277.889C133.348 276.375 131.868 275.026 130.233 273.875C129.128 276.733 127.651 279.56 127.651 279.56Z" fill="#F2F2F2"/>
<path d="M86.3319 203.688C77.4467 194.7 64.5707 189.545 51.0056 189.545L50.4824 189.547C41.5474 189.55 32.7718 187.225 25.0532 182.811L24.25 182.352L24.8969 181.698C28.3992 178.144 31.3236 174.083 33.5676 169.657C31.9738 171.115 30.0729 172.211 27.9995 172.868C25.926 173.525 23.7306 173.727 21.5687 173.459C19.2863 173.192 17.0951 172.422 15.1596 171.206C13.224 169.99 11.5943 168.36 10.3927 166.438C5.65152 158.893 0 148.187 0 140.031C0.00738033 133.137 1.47902 126.32 4.32114 120.015C7.16325 113.71 11.3135 108.055 16.5073 103.41C19.7954 100.502 22.4218 96.9467 24.2152 92.9763C26.0085 89.0059 26.9287 84.7094 26.9156 80.3668L26.9129 79.7488C26.912 74.0315 27.6243 68.3356 29.034 62.788L29.1771 62.2278L29.7648 62.248C33.5542 62.3745 37.3456 62.0629 41.0608 61.3198C37.576 60.9005 34.1669 60.0112 30.9302 58.6769L30.298 58.4261L30.5125 57.7907C45.3016 48.8093 78.6848 53.4603 98.0614 9.97723C113.773 -25.2816 169.21 41.2766 169.21 79.7488C169.21 83.6745 165.249 88.8621 168.214 91.4567C200.267 119.505 178.151 137.516 171.178 155.639C169.523 159.939 173.111 164.66 173.111 169.312C173.111 170.101 173.09 170.916 173.05 171.734L172.988 172.991L171.919 172.293C169.805 170.935 167.845 169.358 166.073 167.59C167.911 171.739 168.778 176.24 168.608 180.76C168.439 185.281 167.238 189.707 165.095 193.713C161.736 199.931 158.486 204.383 155.436 206.944C145.665 215.145 133.07 219.376 120.225 218.77C107.38 218.165 95.2559 212.77 86.3319 203.688Z" fill="#E6E6E6"/>
<path d="M139.996 297.242C140.214 297.242 140.425 297.164 140.59 297.024C140.755 296.883 140.863 296.689 140.894 296.477C140.932 296.211 144.71 269.486 141.317 233.966C138.184 201.163 128.12 153.915 97.9752 115.11C97.903 115.017 97.8128 114.939 97.7097 114.88C97.6067 114.821 97.4927 114.783 97.3745 114.767C97.2563 114.751 97.136 114.758 97.0206 114.788C96.9052 114.818 96.797 114.87 96.7021 114.941C96.6072 115.012 96.5275 115.101 96.4675 115.202C96.4075 115.303 96.3685 115.415 96.3526 115.531C96.3367 115.647 96.3443 115.765 96.3749 115.878C96.4055 115.991 96.4585 116.097 96.531 116.19C126.416 154.659 136.398 201.561 139.509 234.132C142.883 269.445 139.134 295.962 139.096 296.226C139.078 296.353 139.087 296.481 139.124 296.604C139.161 296.726 139.224 296.839 139.31 296.935C139.395 297.032 139.5 297.109 139.619 297.162C139.737 297.215 139.866 297.242 139.996 297.242Z" fill="#FFBC31"/>
<path d="M115.396 169.846C115.587 169.846 115.774 169.786 115.93 169.676C116.085 169.565 116.2 169.41 116.26 169.231C116.319 169.052 116.319 168.859 116.26 168.68C116.201 168.501 116.085 168.345 115.93 168.235C115.821 168.157 104.793 160.363 88.3061 154.442C73.0654 148.969 49.8897 144.008 26.0307 151.456C25.9169 151.491 25.8114 151.548 25.72 151.623C25.6287 151.699 25.5535 151.791 25.4986 151.895C25.4437 151.999 25.4102 152.112 25.4001 152.229C25.3899 152.346 25.4033 152.463 25.4395 152.575C25.4757 152.686 25.534 152.79 25.611 152.879C25.688 152.968 25.7822 153.042 25.8882 153.096C25.9943 153.15 26.1101 153.182 26.229 153.192C26.3479 153.202 26.4676 153.188 26.5813 153.153C49.9515 145.858 72.7071 150.737 87.6818 156.115C103.933 161.951 114.755 169.599 114.863 169.675C115.017 169.786 115.204 169.846 115.396 169.846Z" fill="#FFBC31"/>
<path d="M156.948 68.3376C156.962 68.15 156.915 67.9629 156.814 67.8031C156.712 67.6433 156.562 67.519 156.385 67.4481C156.207 67.3771 156.011 67.3632 155.825 67.4082C155.639 67.4533 155.472 67.555 155.348 67.6988C155.261 67.8002 146.541 78.0275 139.333 93.7299C132.67 108.246 125.956 130.561 131.812 154.439C131.868 154.668 132.015 154.866 132.22 154.99C132.426 155.113 132.673 155.151 132.907 155.096C133.141 155.041 133.343 154.897 133.469 154.695C133.594 154.494 133.633 154.252 133.577 154.022C127.842 130.634 134.442 108.724 140.989 94.4611C148.094 78.9829 156.651 68.9464 156.736 68.8468C156.86 68.7033 156.934 68.525 156.948 68.3376Z" fill="#FFBC31"/>
<path d="M155.719 114.254C156.485 120.316 160.767 125.314 166.995 125.314C169.985 125.314 172.853 124.149 174.968 122.074C177.083 120 178.271 117.187 178.271 114.254C178.271 108.146 173.196 103.759 166.995 103.194C160.415 102.595 154.736 106.472 155.719 114.254Z" fill="#2F2E41"/>
<path d="M172.217 292.371L176.511 292.37L178.554 276.125L172.216 276.126L172.217 292.371Z" fill="#FFB6B6"/>
<path d="M172.066 296.764L185.271 296.764V296.6C185.271 295.263 184.729 293.981 183.765 293.036C182.801 292.09 181.494 291.559 180.131 291.559L177.719 289.764L173.219 291.559L172.066 291.559L172.066 296.764Z" fill="#2F2E41"/>
<path d="M155.304 292.371L159.597 292.37L161.64 276.125L155.303 276.126L155.304 292.371Z" fill="#FFB6B6"/>
<path d="M155.153 296.764L168.357 296.764V296.6C168.357 295.263 167.815 293.981 166.852 293.036C165.888 292.09 164.581 291.559 163.218 291.559L160.805 289.764L156.305 291.559L155.152 291.559L155.153 296.764Z" fill="#2F2E41"/>
<path d="M186.994 190.625L190.029 200.834L186.453 244.071C186.453 244.071 188.295 246.775 186.994 246.775C185.693 246.775 184.024 247.374 185.075 248.989C186.126 250.603 182.534 256.399 182.534 256.399L177.453 287.185L170.978 287.091C170.978 287.091 167.686 285.293 169.534 283.474C171.381 281.655 172.682 281.655 170.947 279.954C169.213 278.252 169.213 278.765 169.213 277.445C169.213 276.125 167.475 259.998 171.596 253.812L170.354 228.589L167.429 253.329L161.406 286.334L155.169 286.284C155.169 286.284 152.288 283.56 152.294 281.544C152.299 279.528 154.074 279.361 152.753 278.169C151.432 276.976 151.432 258.658 155.335 248.476C155.335 248.476 157.543 242.787 155.33 240.838C153.117 238.889 155.327 236.658 155.327 236.658C155.327 236.658 158.832 235.415 155.324 231.835C151.816 228.254 155.305 202.931 155.305 202.931C155.305 202.931 151.47 192.709 155.354 188.69C159.238 184.67 186.994 190.625 186.994 190.625Z" fill="#2F2E41"/>
<path d="M132.925 208.214L138.341 195.376L142.608 197.701L140.031 210.761C140.289 211.589 140.307 212.47 140.082 213.307C139.858 214.144 139.399 214.903 138.759 215.498C138.119 216.093 137.322 216.501 136.458 216.677C135.594 216.852 134.698 216.788 133.869 216.491C133.04 216.194 132.313 215.676 131.768 214.996C131.223 214.316 130.882 213.5 130.784 212.64C130.686 211.78 130.834 210.91 131.212 210.128C131.59 209.347 132.183 208.684 132.925 208.214Z" fill="#FFB6B6"/>
<path d="M223.813 106.69L215.572 117.991L211.953 114.778L217.48 102.63C217.419 101.767 217.606 100.904 218.018 100.139C218.43 99.3742 219.052 98.7371 219.813 98.2996C220.574 97.8621 221.444 97.6414 222.326 97.6625C223.208 97.6836 224.067 97.9456 224.805 98.4189C225.544 98.8923 226.133 99.5584 226.506 100.342C226.88 101.126 227.023 101.996 226.92 102.856C226.817 103.715 226.472 104.529 225.923 105.207C225.374 105.884 224.643 106.398 223.813 106.69Z" fill="#FFB6B6"/>
<path d="M187.811 191.672C193.157 199.804 166.287 210.125 155.977 205.982C154.172 205.256 147.962 202.86 152.207 199.537C156.451 196.215 151.715 195.747 151.603 193.585C151.528 192.139 152.669 188.967 151.478 189.103C150.287 189.239 148.894 187.239 151.487 186.379C154.081 185.518 151.515 184.734 151.538 183.917C151.786 175.003 158.758 160.825 158.758 160.825L146.194 192.326C146.194 192.326 146.287 197.776 144.685 196.111C143.083 194.445 143.199 199.836 143.199 199.836C143.199 199.836 140.817 201.467 142.187 202.374C143.557 203.282 140.712 206.072 140.712 206.072L134.073 205.607C134.073 205.607 134.177 200.77 135.311 199.701C136.444 198.631 135.888 196.948 135.888 196.948C135.888 196.948 138.839 194.386 136.86 192.305C134.316 189.63 143.593 144.438 146.794 144.886C147.247 142.725 148.3 140.729 149.837 139.119C151.374 137.509 153.334 136.346 155.503 135.761L162.672 133.825L163.945 128.87H174.041L175.799 132.125L183.475 135.523C184.92 133.522 186.001 131.414 191.921 130.73C191.921 130.73 207.873 116.494 207.094 115.383C206.315 114.271 208.788 111.669 208.788 111.669C208.788 111.669 210.9 110.991 209.708 110.629C208.516 110.267 210.769 109.43 210.769 109.43C210.769 109.43 212.855 108.892 211.871 108.184C210.887 107.477 215.155 107.011 215.155 107.011L220.691 111.442L219.572 113.304C219.572 113.304 220.255 115.838 219.364 114.913C218.474 113.988 218.306 116.673 218.306 116.673C218.306 116.673 217.851 119.613 215.155 120.499C212.458 121.384 210.413 129.8 210.413 129.8C204.053 137.911 196.548 144.238 187.653 148.403C191.12 152.306 187.811 191.672 187.811 191.672Z" fill="#F3A400"/>
<path d="M168.241 125.971C173.763 125.971 178.24 121.58 178.24 116.163C178.24 110.747 173.763 106.356 168.241 106.356C162.719 106.356 158.242 110.747 158.242 116.163C158.242 121.58 162.719 125.971 168.241 125.971Z" fill="#FFB6B6"/>
<path d="M157.887 117.232C158.204 119.363 160.056 122.336 159.622 122.336C159.189 122.336 156.105 113.551 159.189 112.978C161.425 112.563 161.925 112.927 164.015 112.038L163.721 112.31C165.104 113.297 167.03 112.689 168.608 112.046C170.191 111.408 172.112 110.8 173.5 111.783C174.372 112.4 174.74 113.471 175.282 114.382C175.825 115.296 176.826 116.16 177.859 115.879C178.687 115.654 179.164 114.743 179.16 113.901C179.155 113.059 178.037 112.258 178.414 111.502C179.53 109.263 178.526 107.736 176.093 106.683C175.209 106.551 174.324 106.416 173.439 106.278C173.903 105.649 174.465 105.094 175.105 104.636C174.834 103.957 174.367 103.37 173.76 102.948C173.053 102.535 172.177 102.565 171.358 102.607C169.528 102.701 167.699 102.795 165.872 102.888C164.519 102.956 163.118 103.037 161.908 103.645C160.399 104.407 159.41 105.891 158.69 107.401C157.077 110.796 157.332 113.527 157.887 117.232Z" fill="#2F2E41"/>
<path d="M116.293 297.869L214.63 298C214.767 298 214.899 297.947 214.995 297.852C215.092 297.757 215.147 297.628 215.147 297.494C215.147 297.359 215.092 297.23 214.995 297.135C214.899 297.04 214.767 296.987 214.63 296.987L116.293 296.856C116.156 296.856 116.025 296.91 115.928 297.005C115.831 297.1 115.776 297.228 115.776 297.363C115.776 297.497 115.831 297.626 115.928 297.721C116.025 297.816 116.156 297.869 116.293 297.869Z" fill="#CACACA"/>
<path d="M80.7267 253.719C80.908 252.497 79.603 251.299 77.8119 251.044C76.0208 250.788 74.4219 251.572 74.2406 252.794C74.0593 254.016 75.3643 255.214 77.1554 255.469C78.9465 255.725 80.5454 254.941 80.7267 253.719Z" fill="#E6E6E6"/>
<path d="M102.052 251.678C102.233 250.456 100.928 249.258 99.1367 249.003C97.3456 248.747 95.7467 249.531 95.5654 250.753C95.3841 251.975 96.6891 253.173 98.4802 253.428C100.271 253.684 101.87 252.901 102.052 251.678Z" fill="#FFBC31"/>
<path d="M74.8873 236.786C75.0686 235.564 73.7636 234.366 71.9725 234.11C70.1814 233.855 68.5825 234.638 68.4012 235.86C68.22 237.083 69.5249 238.28 71.316 238.536C73.1071 238.792 74.706 238.008 74.8873 236.786Z" fill="#FFD06E"/>
<path d="M65.6211 229.85C65.6298 228.728 64.9917 227.814 64.196 227.808C63.4003 227.802 62.7482 228.707 62.7395 229.829C62.7309 230.95 63.3689 231.865 64.1647 231.871C64.9604 231.877 65.6125 230.972 65.6211 229.85Z" fill="#E6E6E6"/>
<path d="M62.4788 216.931C62.4874 215.809 61.8494 214.894 61.0537 214.888C60.2579 214.883 59.6059 215.787 59.5972 216.909C59.5886 218.031 60.2266 218.945 61.0223 218.951C61.8181 218.957 62.4701 218.053 62.4788 216.931Z" fill="#FFBC31"/>
<path d="M86.9147 239.668C86.9233 238.546 86.2853 237.631 85.4896 237.626C84.6938 237.62 84.0418 238.524 84.0331 239.646C84.0245 240.768 84.6625 241.683 85.4582 241.688C86.254 241.694 86.906 240.79 86.9147 239.668Z" fill="#E6E6E6"/>
<path d="M76.6096 244.714C76.6183 243.592 75.9802 242.678 75.1845 242.672C74.3888 242.666 73.7367 243.571 73.7281 244.693C73.7194 245.815 74.3574 246.729 75.1532 246.735C75.9489 246.741 76.601 245.836 76.6096 244.714Z" fill="#FFD06E"/>
<path d="M90.9546 254.042C90.9632 252.92 90.3252 252.005 89.5295 252C88.7338 251.994 88.0817 252.898 88.073 254.02C88.0644 255.142 88.7024 256.057 89.4982 256.062C90.2939 256.068 90.9459 255.164 90.9546 254.042Z" fill="#FFBC31"/>
<path d="M244.658 188.212C244.84 186.99 243.535 185.792 241.744 185.536C239.953 185.281 238.354 186.064 238.172 187.286C237.991 188.508 239.296 189.706 241.087 189.962C242.878 190.217 244.477 189.434 244.658 188.212Z" fill="#E6E6E6"/>
<path d="M265.983 186.171C266.165 184.949 264.86 183.751 263.068 183.495C261.277 183.24 259.678 184.023 259.497 185.245C259.316 186.467 260.621 187.665 262.412 187.921C264.203 188.176 265.802 187.393 265.983 186.171Z" fill="#FFBC31"/>
<path d="M238.819 171.278C239 170.056 237.695 168.858 235.904 168.603C234.113 168.347 232.514 169.131 232.333 170.353C232.151 171.575 233.456 172.773 235.247 173.028C237.039 173.284 238.637 172.501 238.819 171.278Z" fill="#FFD06E"/>
<path d="M229.553 164.342C229.562 163.22 228.923 162.306 228.128 162.3C227.332 162.294 226.68 163.199 226.671 164.321C226.663 165.443 227.301 166.357 228.096 166.363C228.892 166.369 229.544 165.464 229.553 164.342Z" fill="#E6E6E6"/>
<path d="M226.411 151.423C226.419 150.301 225.781 149.387 224.985 149.381C224.19 149.375 223.538 150.28 223.529 151.402C223.52 152.524 224.158 153.438 224.954 153.444C225.75 153.45 226.402 152.545 226.411 151.423Z" fill="#FFBC31"/>
<path d="M250.846 174.16C250.855 173.038 250.217 172.124 249.421 172.118C248.626 172.112 247.974 173.017 247.965 174.139C247.956 175.261 248.594 176.175 249.39 176.181C250.186 176.187 250.838 175.282 250.846 174.16Z" fill="#E6E6E6"/>
<path d="M240.541 179.207C240.55 178.085 239.912 177.171 239.116 177.165C238.321 177.159 237.668 178.063 237.66 179.185C237.651 180.307 238.289 181.222 239.085 181.227C239.881 181.233 240.533 180.329 240.541 179.207Z" fill="#FFD06E"/>
<path d="M254.886 188.534C254.895 187.412 254.257 186.498 253.461 186.492C252.666 186.486 252.013 187.391 252.005 188.513C251.996 189.635 252.634 190.549 253.43 190.555C254.226 190.561 254.878 189.656 254.886 188.534Z" fill="#FFBC31"/>
<path d="M165.295 66.9804C165.476 65.7583 164.171 64.5604 162.38 64.3048C160.589 64.0492 158.99 64.8327 158.809 66.0548C158.627 67.2769 159.932 68.4748 161.723 68.7304C163.514 68.986 165.113 68.2025 165.295 66.9804Z" fill="white"/>
<path d="M186.62 64.9394C186.801 63.7173 185.496 62.5194 183.705 62.2638C181.914 62.0082 180.315 62.7917 180.133 64.0138C179.952 65.2359 181.257 66.4338 183.048 66.6894C184.839 66.945 186.438 66.1615 186.62 64.9394Z" fill="#FFBC31"/>
<path d="M159.455 50.047C159.637 48.8249 158.332 47.627 156.541 47.3714C154.749 47.1158 153.151 47.8993 152.969 49.1214C152.788 50.3435 154.093 51.5414 155.884 51.797C157.675 52.0526 159.274 51.2691 159.455 50.047Z" fill="#FFD06E"/>
<path d="M150.189 43.111C150.198 41.9891 149.56 41.0748 148.764 41.0689C147.968 41.063 147.316 41.9677 147.308 43.0896C147.299 44.2116 147.937 45.1259 148.733 45.1318C149.528 45.1377 150.18 44.233 150.189 43.111Z" fill="#E6E6E6"/>
<path d="M147.047 30.1918C147.055 29.0699 146.417 28.1556 145.622 28.1497C144.826 28.1438 144.174 29.0485 144.165 30.1705C144.157 31.2924 144.795 32.2067 145.59 32.2126C146.386 32.2185 147.038 31.3138 147.047 30.1918Z" fill="#FFBC31"/>
<path d="M171.483 52.9286C171.491 51.8067 170.853 50.8924 170.058 50.8865C169.262 50.8806 168.61 51.7853 168.601 52.9073C168.592 54.0292 169.231 54.9435 170.026 54.9494C170.822 54.9553 171.474 54.0506 171.483 52.9286Z" fill="#E6E6E6"/>
<path d="M161.178 57.9753C161.186 56.8533 160.548 55.9391 159.752 55.9332C158.957 55.9273 158.305 56.832 158.296 57.9539C158.287 59.0758 158.925 59.9901 159.721 59.996C160.517 60.0019 161.169 59.0972 161.178 57.9753Z" fill="#FFD06E"/>
<path d="M175.523 67.3029C175.531 66.181 174.893 65.2667 174.097 65.2608C173.302 65.2549 172.65 66.1596 172.641 67.2815C172.632 68.4035 173.27 69.3178 174.066 69.3237C174.862 69.3296 175.514 68.4248 175.523 67.3029Z" fill="#FFBC31"/>
</g>
<defs>
<clipPath id="clip0_2081_2696">
<rect width="266" height="298" fill="white"/>
</clipPath>
</defs>
</svg>
