<svg width="21" height="20" viewBox="0 0 21 20" fill="none" xmlns="http://www.w3.org/2000/svg">
<path d="M14.709 3.54949L16.9505 5.79104M16.1501 1.57476L10.0861 7.63871C9.77279 7.95159 9.55911 8.35023 9.47199 8.78437L8.91187 11.5882L11.7157 11.027C12.1498 10.9402 12.5479 10.7273 12.8613 10.4139L18.9253 4.34997C19.1075 4.16775 19.252 3.95142 19.3506 3.71333C19.4493 3.47525 19.5 3.22007 19.5 2.96237C19.5 2.70466 19.4493 2.44949 19.3506 2.2114C19.252 1.97332 19.1075 1.75699 18.9253 1.57476C18.743 1.39254 18.5267 1.24799 18.2886 1.14938C18.0505 1.05076 17.7954 1 17.5377 1C17.28 1 17.0248 1.05076 16.7867 1.14938C16.5486 1.24799 16.3323 1.39254 16.1501 1.57476Z" stroke="#0E0E0E" stroke-width="2" stroke-linecap="round" stroke-linejoin="round"/>
<path d="M17.3825 13.706V16.8825C17.3825 17.4442 17.1594 17.9828 16.7623 18.3799C16.3651 18.7771 15.8265 19.0002 15.2648 19.0002H3.61767C3.05603 19.0002 2.51739 18.7771 2.12025 18.3799C1.72311 17.9828 1.5 17.4442 1.5 16.8825V5.23534C1.5 4.6737 1.72311 4.13507 2.12025 3.73793C2.51739 3.34079 3.05603 3.11768 3.61767 3.11768H6.79417" stroke="#0E0E0E" stroke-width="2" stroke-linecap="round" stroke-linejoin="round"/>
</svg>
