<svg width="247" height="287" viewBox="0 0 247 287" fill="none" xmlns="http://www.w3.org/2000/svg">
<g clip-path="url(#clip0_1843_1208)">
<path d="M238.549 105.781H8.24021C6.18811 105.778 4.22073 104.962 2.76967 103.51C1.31861 102.059 0.50237 100.091 0.5 98.0385V7.7421C0.50237 5.68949 1.31861 3.72163 2.76967 2.27022C4.22073 0.818811 6.18811 0.0023701 8.24021 0H238.549C240.601 0.0023701 242.569 0.818811 244.02 2.27022C245.471 3.72163 246.287 5.68949 246.289 7.7421V98.0385C246.287 100.091 245.471 102.059 244.02 103.51C242.569 104.962 240.601 105.778 238.549 105.781Z" fill="#F2F2F2"/>
<path d="M184.836 100.843H44.7981C34.3627 100.831 24.3581 96.6795 16.9791 89.2987C9.60018 81.9179 5.44952 71.9109 5.43774 61.4729V44.3122C5.44951 33.8742 9.60016 23.8671 16.9791 16.4863C24.3581 9.10547 34.3627 4.95373 44.7981 4.94189H201.992C212.428 4.95373 222.432 9.10547 229.811 16.4863C237.19 23.8671 241.341 33.8742 241.353 44.3122C241.336 59.2999 235.376 73.6688 224.781 84.2667C214.185 94.8646 199.82 100.826 184.836 100.843Z" fill="white"/>
<path d="M148.712 30.7907H56.1451C55.6157 30.7907 55.108 30.5804 54.7336 30.2059C54.3592 29.8315 54.1489 29.3236 54.1489 28.7941C54.1489 28.2645 54.3592 27.7566 54.7336 27.3822C55.108 27.0077 55.6157 26.7974 56.1451 26.7974H148.712C149.241 26.7974 149.749 27.0077 150.123 27.3822C150.498 27.7566 150.708 28.2645 150.708 28.7941C150.708 29.3236 150.498 29.8315 150.123 30.2059C149.749 30.5804 149.241 30.7907 148.712 30.7907Z" fill="#E6E6E6"/>
<path d="M195.571 52.094H56.1451C55.6157 52.094 55.108 51.8836 54.7336 51.5091C54.3592 51.1347 54.1489 50.6268 54.1489 50.0973C54.1489 49.5677 54.3592 49.0599 54.7336 48.6854C55.108 48.3109 55.6157 48.1006 56.1451 48.1006H195.571C196.1 48.1006 196.608 48.3109 196.982 48.6854C197.356 49.0599 197.567 49.5677 197.567 50.0973C197.567 50.6268 197.356 51.1347 196.982 51.5091C196.608 51.8836 196.1 52.094 195.571 52.094Z" fill="#E6E6E6"/>
<path d="M195.571 73.3972H56.1451C55.6157 73.3972 55.108 73.1868 54.7336 72.8124C54.3592 72.4379 54.1489 71.93 54.1489 71.4005C54.1489 70.8709 54.3592 70.3631 54.7336 69.9886C55.108 69.6142 55.6157 69.4038 56.1451 69.4038H195.571C196.1 69.4038 196.608 69.6142 196.982 69.9886C197.356 70.3631 197.567 70.8709 197.567 71.4005C197.567 71.93 197.356 72.4379 196.982 72.8124C196.608 73.1868 196.1 73.3972 195.571 73.3972Z" fill="#E6E6E6"/>
<path d="M195.571 73.3972H56.1451C55.6157 73.3972 55.108 73.1868 54.7336 72.8124C54.3592 72.4379 54.1489 71.93 54.1489 71.4005C54.1489 70.8709 54.3592 70.3631 54.7336 69.9886C55.108 69.6142 55.6157 69.4038 56.1451 69.4038H195.571C196.1 69.4038 196.608 69.6142 196.982 69.9886C197.356 70.3631 197.567 70.8709 197.567 71.4005C197.567 71.93 197.356 72.4379 196.982 72.8124C196.608 73.1868 196.1 73.3972 195.571 73.3972Z" fill="#E6E6E6"/>
<path d="M138.944 54.5392C138.966 55.1406 139.12 55.7299 139.394 56.2655C139.669 56.801 140.057 57.2699 140.533 57.639C141.008 58.0081 141.558 58.2685 142.145 58.4019C142.732 58.5352 143.34 58.5382 143.929 58.4108L151.541 70.9026L154.781 64.0256L147.055 53.2174C146.776 52.2435 146.149 51.406 145.293 50.8636C144.437 50.3212 143.413 50.1116 142.413 50.2746C141.413 50.4375 140.507 50.9616 139.868 51.7476C139.229 52.5336 138.9 53.5269 138.944 54.5392Z" fill="#FFB6B6"/>
<path d="M196.072 90.3397L169.837 76.1059L161.562 68.3403C161.562 68.3403 157.965 67.3769 159.289 66.2069C160.613 65.0369 156.84 63.9085 156.84 63.9085L152.398 59.7397L146.085 64.2072L147.912 67.0398C147.912 67.0398 147.786 71.729 150.355 70.8269C152.923 69.9247 152.281 73.8138 152.281 73.8138L167.61 97.5816L196.072 90.3397Z" fill="#3F3D56"/>
<path d="M118.63 76.9296C132.782 76.9296 144.255 65.454 144.255 51.2981C144.255 37.1421 132.782 25.6665 118.63 25.6665C104.477 25.6665 93.0044 37.1421 93.0044 51.2981C93.0044 65.454 104.477 76.9296 118.63 76.9296Z" fill="#FFBC31"/>
<path d="M196.154 277.035H190.825L188.29 256.478H196.154V277.035Z" fill="#FFB6B6"/>
<path d="M198.966 286.269H195.145L194.463 282.66L192.716 286.269H182.582C182.096 286.269 181.623 286.114 181.232 285.826C180.84 285.538 180.551 285.132 180.407 284.668C180.262 284.204 180.27 283.706 180.428 283.247C180.586 282.788 180.887 282.391 181.287 282.115L189.38 276.524V272.876L197.893 273.385L198.966 286.269Z" fill="#2F2E41"/>
<path d="M153.539 277.035H148.211L145.675 256.478H153.539V277.035Z" fill="#FFB6B6"/>
<path d="M156.351 286.269H152.53L151.848 282.66L150.101 286.269H139.967C139.481 286.269 139.008 286.114 138.617 285.826C138.226 285.538 137.937 285.132 137.792 284.668C137.647 284.204 137.655 283.706 137.813 283.247C137.972 282.788 138.273 282.391 138.672 282.115L146.765 276.524V272.876L155.278 273.385L156.351 286.269Z" fill="#2F2E41"/>
<path d="M190.5 121.567H163.607V152.191H190.5V121.567Z" fill="#FFB6B6"/>
<path d="M164.228 136.673L159.677 142.053L151.816 158.606L132.008 205.746L127.819 215.716L131.202 233.339C131.202 233.339 131.75 245.755 131.75 247.788C131.75 251.926 135.21 254.219 135.21 254.219L137.749 267.445L162.366 266.41C162.366 266.41 161.507 251.832 156.351 248.154C151.195 244.477 148.825 225.312 148.825 225.312L146.024 216.809L173.33 184.432L173.506 195.749L173.592 201.227C173.592 201.227 169.593 236.856 174.254 243.77C178.916 250.685 174.349 249.871 174.349 249.871L174.571 264.134L203.74 264.341L197.305 223.277C197.305 223.277 194.037 220.697 195.785 218.103C197.534 215.509 194.091 212.332 194.091 212.332L195.635 180.274C195.635 180.274 193.925 174.737 195.936 174.017C197.947 173.297 196.2 168.536 196.2 168.536L196.499 162.331L190.5 143.087L164.228 136.673Z" fill="#2F2E41"/>
<path d="M190.914 121.568L193.81 112.877L195.879 109.98L196.706 101.704C196.706 79.3564 191.723 83.0777 191.723 83.0777L188.845 75.218L175.605 74.8042L167.124 82.874L160.09 85.357L157.336 99.6717L162.366 114.946L163.607 123.223C161.239 127.595 161.44 125.527 163.4 128.81L186.776 135.224C195.051 138.121 195.051 130.672 193.392 128.81C191.733 126.948 190.914 121.568 190.914 121.568Z" fill="#3F3D56"/>
<path d="M180.515 72.0261C187.293 72.0261 192.788 66.5298 192.788 59.7496C192.788 52.9695 187.293 47.4731 180.515 47.4731C173.737 47.4731 168.241 52.9695 168.241 59.7496C168.241 66.5298 173.737 72.0261 180.515 72.0261Z" fill="#FFB6B6"/>
<path d="M196.9 76.1366C197.016 76.3317 197.086 76.5505 197.106 76.7765C197.125 77.0026 197.093 77.23 197.012 77.4421C196.932 77.6541 196.804 77.8451 196.639 78.001C196.475 78.1569 196.277 78.2735 196.061 78.3423C194.414 78.8886 193.4 80.4819 192.217 81.7565C191.038 83.027 189.139 84.0822 187.633 83.2173C186.131 82.3565 186.028 80.1591 184.77 78.9672C183.545 77.8085 181.51 77.9492 180.07 78.8307L180.027 78.8571C179.778 79.0192 179.488 79.1049 179.191 79.1035C178.894 79.1022 178.604 79.0139 178.357 78.8495C178.11 78.6852 177.917 78.4521 177.801 78.1789C177.685 77.9058 177.652 77.6046 177.705 77.3127C178.209 74.6291 178.714 71.9458 179.217 69.2628C177.893 72.4536 175.971 75.3614 173.553 77.8292C172.888 78.5977 172.044 79.1916 171.096 79.559C170.235 79.8321 169.399 78.9424 168.564 79.1038C170.641 77.287 177.625 65.6417 176.375 57.8574C174.906 58.023 173.438 58.1885 171.969 58.354C171.81 57.6588 171.47 57.0178 170.984 56.4959C171.043 57.1726 170.957 57.8541 170.732 58.4947C170.119 58.5651 169.503 58.6313 168.891 58.7017C168.038 58.7969 167.112 58.8796 166.379 58.4327C165.159 57.6878 165.121 55.9248 165.469 54.5343C166.487 50.4911 169.573 47.1101 173.351 45.3389C177.128 43.5718 178.245 47.5074 182.225 46.2494C190.086 43.7663 196.11 48.0123 198.233 55.8917C200.016 62.5007 198.721 69.5152 196.9 76.1366Z" fill="#2F2E41"/>
<path d="M230.879 286.536H215.85L215.786 286.418C215.594 286.07 215.408 285.701 215.235 285.321C213.687 282.006 213.033 278.215 212.455 274.87L212.02 272.348C211.968 272.043 212.007 271.729 212.134 271.446C212.261 271.163 212.47 270.925 212.733 270.761C212.996 270.598 213.302 270.517 213.611 270.528C213.921 270.539 214.22 270.643 214.47 270.825C216.754 272.488 219.039 274.148 221.325 275.807C222.19 276.437 223.179 277.166 224.125 277.954C224.217 277.51 224.312 277.065 224.408 276.627C224.474 276.324 224.628 276.047 224.852 275.833C225.076 275.618 225.359 275.475 225.664 275.423C225.97 275.37 226.284 275.409 226.567 275.536C226.85 275.663 227.088 275.871 227.252 276.135L229.01 278.96C230.293 281.024 231.425 283.057 231.194 285.251C231.195 285.277 231.193 285.304 231.188 285.33C231.142 285.691 231.057 286.045 230.933 286.386L230.879 286.536Z" fill="#F0F0F0"/>
<path d="M245.964 286.861L103.152 287C103.01 286.999 102.873 286.942 102.773 286.841C102.672 286.74 102.616 286.603 102.616 286.461C102.616 286.318 102.672 286.181 102.773 286.08C102.873 285.979 103.01 285.922 103.152 285.921L245.964 285.782C246.106 285.783 246.243 285.84 246.343 285.941C246.444 286.042 246.5 286.179 246.5 286.322C246.5 286.464 246.444 286.601 246.343 286.702C246.243 286.803 246.106 286.86 245.964 286.861Z" fill="#CACACA"/>
<path d="M116.3 85.7958L100.592 72.5267C100.055 72.0721 99.7199 71.4231 99.6608 70.7219C99.6017 70.0208 99.823 69.3248 100.276 68.7867L103.168 65.3623C103.622 64.8252 104.271 64.4904 104.972 64.4313C105.673 64.3722 106.369 64.5936 106.907 65.047L122.615 78.3161C123.152 78.7707 123.487 79.4197 123.546 80.1209C123.605 80.822 123.384 81.518 122.93 82.056L120.039 85.4805C119.585 86.0176 118.936 86.3524 118.235 86.4115C117.534 86.4706 116.838 86.2492 116.3 85.7958Z" fill="#3F3D56"/>
<path d="M101.416 69.063C101.172 69.353 101.052 69.728 101.084 70.1058C101.116 70.4837 101.296 70.8334 101.586 71.0784L117.294 84.3475C117.584 84.5918 117.959 84.7111 118.337 84.6793C118.715 84.6474 119.064 84.467 119.309 84.1776L122.2 80.7532C122.445 80.4632 122.564 80.0882 122.532 79.7103C122.5 79.3325 122.32 78.9827 122.031 78.7378L106.322 65.4687C106.032 65.2243 105.657 65.105 105.279 65.1369C104.902 65.1688 104.552 65.3492 104.307 65.6386L101.416 69.063Z" fill="white"/>
<path d="M110.638 74.2215C110.583 74.2978 110.512 74.3603 110.429 74.4042C110.346 74.448 110.254 74.4719 110.16 74.4741L107.692 74.5308C107.613 74.5326 107.534 74.5188 107.46 74.4901C107.386 74.4614 107.319 74.4185 107.261 74.3637C107.204 74.3089 107.158 74.2433 107.126 74.1707C107.094 74.0982 107.076 74.02 107.075 73.9407C107.073 73.8614 107.087 73.7825 107.115 73.7085C107.144 73.6345 107.187 73.5669 107.242 73.5096C107.296 73.4522 107.362 73.4062 107.435 73.3742C107.507 73.3421 107.585 73.3247 107.665 73.3229L109.279 73.2857L107.689 69.0888C107.633 68.9391 107.638 68.7731 107.704 68.6274C107.77 68.4816 107.891 68.3679 108.04 68.3112C108.19 68.2545 108.356 68.2594 108.502 68.325C108.648 68.3905 108.762 68.5112 108.819 68.6606L110.711 73.656C110.746 73.7464 110.758 73.8436 110.747 73.9396C110.735 74.0356 110.702 74.1275 110.648 74.2077L110.638 74.2215Z" fill="#FFBC31"/>
<path d="M110.954 75.2759C111.55 75.3634 112.119 75.5803 112.621 75.9115C113.123 76.2427 113.547 76.68 113.862 77.1927C114.177 77.7054 114.376 78.2809 114.445 78.8788C114.514 79.4768 114.451 80.0825 114.26 80.6533L125.847 89.581L118.66 92.0548L108.759 83.1977C107.821 82.8138 107.057 82.0992 106.611 81.1894C106.165 80.2796 106.068 79.2378 106.339 78.2614C106.61 77.2849 107.229 76.4417 108.08 75.8915C108.93 75.3412 109.953 75.1222 110.954 75.2759Z" fill="#FFB6B6"/>
<path d="M171.279 79.6904L141.612 97.9349C141.612 97.9349 129.651 93.5082 131.989 91.4589C134.326 89.4096 126.885 88.0242 126.885 88.0242L118.664 82.4922L113.894 88.0375C113.894 88.0375 114.763 97.0448 116.242 95.4852C117.721 93.9256 119.931 98.1861 119.931 98.1861C119.931 98.1861 120.585 102.943 124.795 101.746C129.005 100.549 140.301 113.098 140.301 113.098L176.812 99.4774L171.279 79.6904Z" fill="#3F3D56"/>
<path d="M117.729 61.5796C117.385 61.5796 117.045 61.4995 116.738 61.3456C116.43 61.1918 116.163 60.9684 115.956 60.6931L110.523 53.4468C110.349 53.214 110.222 52.9491 110.149 52.6672C110.077 52.3853 110.061 52.0919 110.102 51.8039C110.144 51.5158 110.241 51.2387 110.389 50.9883C110.537 50.7379 110.734 50.5192 110.966 50.3446C111.436 49.992 112.027 49.8406 112.609 49.9237C112.897 49.9649 113.174 50.0624 113.424 50.2107C113.674 50.3589 113.893 50.5551 114.068 50.7879L117.622 55.5282L126.752 41.8305C127.078 41.3415 127.585 41.002 128.161 40.8868C128.737 40.7715 129.335 40.8899 129.824 41.2159C130.313 41.5419 130.653 42.0488 130.768 42.6251C130.883 43.2014 130.765 43.7999 130.439 44.2889L119.572 60.5928C119.375 60.8877 119.111 61.1311 118.801 61.3027C118.491 61.4743 118.144 61.569 117.79 61.5789C117.77 61.5793 117.749 61.5796 117.729 61.5796Z" fill="white"/>
</g>
<defs>
<clipPath id="clip0_1843_1208">
<rect width="246" height="287" fill="white" transform="translate(0.5)"/>
</clipPath>
</defs>
</svg>
