<svg width="26" height="26" viewBox="0 0 26 26" fill="none" xmlns="http://www.w3.org/2000/svg">
<path fill-rule="evenodd" clip-rule="evenodd" d="M23.0362 6.04859C23.3409 6.35332 23.512 6.76657 23.512 7.19746C23.512 7.62835 23.3409 8.0416 23.0362 8.34634L10.8563 20.5263C10.6954 20.6873 10.5043 20.815 10.2939 20.9021C10.0836 20.9892 9.85819 21.0341 9.63053 21.0341C9.40287 21.0341 9.17745 20.9892 8.96712 20.9021C8.7568 20.815 8.5657 20.6873 8.40474 20.5263L2.35324 14.4758C2.19804 14.3259 2.07424 14.1466 1.98908 13.9484C1.90391 13.7501 1.85908 13.5369 1.85721 13.3211C1.85533 13.1053 1.89645 12.8914 1.97816 12.6917C2.05986 12.492 2.18052 12.3105 2.3331 12.1579C2.48567 12.0054 2.66711 11.8847 2.86682 11.803C3.06652 11.7213 3.2805 11.6802 3.49627 11.6821C3.71203 11.6839 3.92527 11.7288 4.12352 11.8139C4.32178 11.8991 4.50109 12.0229 4.65099 12.1781L9.62999 17.1571L20.7374 6.04859C20.8883 5.89758 21.0675 5.77779 21.2647 5.69606C21.4619 5.61433 21.6733 5.57227 21.8868 5.57227C22.1003 5.57227 22.3117 5.61433 22.5089 5.69606C22.7061 5.77779 22.8853 5.89758 23.0362 6.04859Z" fill="black"/>
</svg>
